#!OML:ASF H:\ManfredETheater\Project 1\Capture day 1\Session 1\subject.ASF
:FULLY-SPECIFIED
:DEGREES
202
root 0.152116 16.3819 -40.7364 -150.903 -4.40359 180.741
lowerback 16.8467 0.359152 3.00003
upperback -2.80811 1.30286 2.06817
thorax -12.6235 0.452172 0.24023
lowerneck -19.9984 -2.69547 -4.44822
upperneck -4.69955 -3.83409 2.23437
head 2.02986 -2.28849 1.19898
rclavicle -1.39149e-014 -2.22639e-014
rhumerus -41.3748 18.4408 -100.018
rradius 115.319
rwrist -9.36249
rhand -22.2727 8.72963
rfingers 7.12502
rthumb 4.14548 -21.2098
lclavicle -1.39149e-014 -2.22639e-014
lhumerus -71.9837 -14.0539 100.302
lradius 94.6785
lwrist 18.8578
lhand -20.5649 -17.658
lfingers 7.12502
lthumb 5.79439 12.2428
rfemur -29.0288 2.83171 27.7277
rtibia 46.5559
rfoot -34.4492 -17.3549
rtoes -31.9027
lfemur -62.0402 5.6513 -15.1648
ltibia 96.1046
lfoot -10.6386 -5.60365
ltoes -9.87477
203
root 0.145027 16.4238 -41.2652 -151.144 -4.79105 180.615
lowerback 16.4834 0.480195 2.96987
upperback -2.81461 1.43241 1.9359
thorax -12.4099 0.514329 0.0774323
lowerneck -19.9677 -2.97559 -4.50044
upperneck -4.46256 -4.15326 2.38131
head 2.12455 -2.4235 1.23002
rclavicle -2.78299e-015 1.74931e-014
rhumerus -41.6812 20.9742 -100.748
rradius 119.517
rwrist -8.65884
rhand -21.6955 9.10232
rfingers 7.12502
rthumb 4.70279 -20.8255
lclavicle -2.78299e-015 1.74931e-014
lhumerus -74.7319 -14.2188 100.547
lradius 97.5392
lwrist 20.4445
lhand -20.0424 -17.3598
lfingers 7.12502
lthumb 6.29885 12.5265
rfemur -25.3194 2.74814 27.8725
rtibia 43.5468
rfoot -32.9836 -17.1121
rtoes -33.2031
lfemur -64.4272 5.23623 -15.3472
ltibia 95.0194
lfoot -11.6755 -5.75748
ltoes -11.0775
204
root 0.135452 16.4719 -41.8039 -151.469 -5.23688 180.497
lowerback 16.1363 0.5755 2.98375
upperback -2.78886 1.53624 1.8077
thorax -12.1682 0.562074 -0.0969815
lowerneck -19.9221 -3.25651 -4.57001
upperneck -4.21595 -4.47005 2.54968
head 2.22206 -2.55569 1.27121
rclavicle 1.98785e-014 1.82882e-014
rhumerus -42.0163 23.3497 -101.371
rradius 123.383
rwrist -7.94915
rhand -21.0592 9.54677
rfingers 7.12502
rthumb 5.31722 -20.3665
lclavicle 1.98785e-014 1.82882e-014
lhumerus -77.1919 -14.2016 100.623
lradius 100.11
lwrist 22.0002
lhand -19.6284 -17.005
lfingers 7.12502
lthumb 6.69851 12.8691
rfemur -21.4925 2.60375 28.0482
rtibia 40.4062
rfoot -30.9369 -16.535
rtoes -34.6863
lfemur -66.4867 4.7069 -15.4866
ltibia 93.4699
lfoot -12.5748 -6.09501
ltoes -11.9806
205
root 0.122497 16.5252 -42.3506 -151.841 -5.71477 180.398
lowerback 15.7972 0.647298 3.04791
upperback -2.74621 1.61832 1.68179
thorax -11.9113 0.596777 -0.289714
lowerneck -19.8938 -3.52777 -4.63437
upperneck -3.93651 -4.77388 2.71581
head 2.33457 -2.6808 1.31102
rclavicle -1.74931e-014 -2.94201e-014
rhumerus -42.3645 25.5233 -101.908
rradius 126.842
rwrist -7.22903
rhand -20.4356 10.055
rfingers 7.12502
rthumb 5.91923 -19.8424
lclavicle -1.74931e-014 -2.94201e-014
lhumerus -79.3556 -14.0283 100.532
lradius 102.365
lwrist 23.3696
lhand -19.336 -16.5571
lfingers 7.12502
lthumb 6.98084 13.3078
rfemur -17.6358 2.3668 28.2421
rtibia 37.2022
rfoot -28.2875 -15.5024
rtoes -36.2072
lfemur -68.2479 4.10389 -15.5876
ltibia 91.4841
lfoot -13.3753 -6.56537
ltoes -12.7917
206
root 0.104038 16.5841 -42.9057 -152.292 -6.17606 180.358
lowerback 15.4886 0.710142 3.19568
upperback -2.66965 1.70407 1.56067
thorax -11.6319 0.628338 -0.523835
lowerneck -19.927 -3.79256 -4.67811
upperneck -3.60353 -5.07103 2.84708
head 2.47575 -2.80359 1.33433
rclavicle 1.98785e-015 -4.45278e-014
rhumerus -42.6825 27.4592 -102.337
rradius 129.821
rwrist -6.56044
rhand -19.9831 10.5974
rfingers 7.12502
rthumb 6.35613 -19.2872
lclavicle 1.98785e-015 -4.45278e-014
lhumerus -81.2082 -13.7336 100.3
lradius 104.289
lwrist 24.458
lhand -19.1852 -16.0545
lfingers 7.12502
lthumb 7.12636 13.8055
rfemur -13.7397 2.01694 28.4418
rtibia 33.9696
rfoot -25.012 -13.9132
rtoes -37.5641
lfemur -69.645 3.48933 -15.6387
ltibia 89.0906
lfoot -14.1069 -7.10179
ltoes -13.4767
207
root 0.0813234 16.6472 -43.4674 -152.759 -6.60638 180.364
lowerback 15.1608 0.768294 3.38739
upperback -2.57817 1.78993 1.44931
thorax -11.3234 0.65874 -0.769723
lowerneck -20.0309 -4.03898 -4.68491
upperneck -3.20675 -5.34791 2.9215
head 2.64901 -2.91798 1.33154
rclavicle 2.82274e-014 2.14687e-014
rhumerus -42.9461 29.1204 -102.636
rradius 132.255
rwrist -6.06729
rhand -19.7829 11.1055
rfingers 7.12502
rthumb 6.54944 -18.7733
lclavicle 2.82274e-014 2.14687e-014
lhumerus -82.7544 -13.3354 99.9531
lradius 105.883
lwrist 25.2062
lhand -19.1848 -15.5371
lfingers 7.12502
lthumb 7.12679 14.3229
rfemur -9.89632 1.58108 28.6123
rtibia 30.7253
rfoot -20.9555 -11.8217
rtoes -38.6026
lfemur -70.7469 2.89285 -15.6607
ltibia 86.3224
lfoot -14.7892 -7.63282
ltoes -14.1795
